<svg width="20" height="20" viewBox="0 0 20 20" fill="none" xmlns="http://www.w3.org/2000/svg">
<path d="M19.5251 4.75065V4.74347L19.5159 4.73014C19.1139 3.99367 18.4816 3.40927 17.7159 3.06642L11.5621 0.330834C11.0702 0.112697 10.5381 0 10 0C9.46193 0 8.92982 0.112697 8.43795 0.330834L2.2841 3.06642C1.51912 3.40964 0.88761 3.99401 0.486154 4.73014L0.476923 4.74347V4.75065C0.167142 5.31138 0.00315068 5.94095 0 6.58156V13.419C0.000218399 14.163 0.216084 14.891 0.621465 15.5149C1.02685 16.1387 1.60436 16.6317 2.2841 16.9341L8.43795 19.6697C8.92742 19.8863 9.45656 19.9988 9.99179 20H10.0082C10.5434 19.9988 11.0726 19.8863 11.5621 19.6697L17.7159 16.9341C18.3956 16.6317 18.9732 16.1387 19.3785 15.5149C19.7839 14.891 19.9998 14.163 20 13.419V6.58156C19.9975 5.94112 19.8342 5.31157 19.5251 4.75065ZM9.06359 1.73709C9.3587 1.60589 9.67807 1.5381 10.001 1.5381C10.324 1.5381 10.6433 1.60589 10.9385 1.73709L17.0923 4.47268C17.2621 4.55243 17.4213 4.65305 17.5662 4.77219L14.762 6.01844L7.31692 2.51254L9.06359 1.73709ZM5.45949 3.33824L12.9046 6.84414L10.9436 7.71498C10.6467 7.84415 10.3264 7.91081 10.0026 7.91081C9.67877 7.91081 9.35845 7.84415 9.06154 7.71498L2.43487 4.76912C2.57976 4.64997 2.73893 4.54936 2.90872 4.46961L5.45949 3.33824ZM2.90872 15.5279C2.50093 15.3464 2.15447 15.0507 1.91128 14.6764C1.66809 14.3021 1.53859 13.8654 1.53846 13.419V6.58156C1.54466 6.41534 1.56873 6.25028 1.61026 6.08921L8.44102 9.12534C8.69472 9.23538 8.95948 9.31791 9.23077 9.37151V18.3178C9.17538 18.2983 9.11692 18.2881 9.06256 18.2635L2.90872 15.5279ZM18.4615 13.419C18.4614 13.8654 18.3319 14.3021 18.0887 14.6764C17.8455 15.0507 17.4991 15.3464 17.0913 15.5279L10.9374 18.2635C10.8831 18.2881 10.8246 18.2983 10.7692 18.3178V9.37049C11.042 9.31702 11.3082 9.23413 11.5631 9.12329L13.9795 8.05141V9.88745C13.9795 10.0915 14.0605 10.2871 14.2048 10.4314C14.349 10.5757 14.5447 10.6567 14.7487 10.6567C14.9527 10.6567 15.1484 10.5757 15.2926 10.4314C15.4369 10.2871 15.5179 10.0915 15.5179 9.88745V7.36623L18.3897 6.08921C18.4313 6.25028 18.4553 6.41534 18.4615 6.58156V13.419Z" fill="black"/>
</svg>
