<svg width="12" height="12" viewBox="0 0 12 12" fill="none" xmlns="http://www.w3.org/2000/svg">
<g clip-path="url(#clip0_773_6029)">
<path fill-rule="evenodd" clip-rule="evenodd" d="M3.27876 7.73828C4.0752 7.73828 4.72159 8.38467 4.72159 9.18111C4.72159 9.97755 4.0752 10.6239 3.27876 10.6239C2.48232 10.6239 1.83594 9.97755 1.83594 9.18111C1.83594 8.38467 2.48232 7.73828 3.27876 7.73828ZM3.27876 8.52528C2.91674 8.52528 2.62293 8.81909 2.62293 9.18111C2.62293 9.54312 2.91674 9.83694 3.27876 9.83694C3.64078 9.83694 3.93459 9.54312 3.93459 9.18111C3.93459 8.81909 3.64078 8.52528 3.27876 8.52528Z" fill="black"/>
<path fill-rule="evenodd" clip-rule="evenodd" d="M8.00093 7.73828C8.79737 7.73828 9.44376 8.38467 9.44376 9.18111C9.44376 9.97755 8.79737 10.6239 8.00093 10.6239C7.20449 10.6239 6.55811 9.97755 6.55811 9.18111C6.55811 8.38467 7.20449 7.73828 8.00093 7.73828ZM8.00093 8.52528C7.63891 8.52528 7.3451 8.81909 7.3451 9.18111C7.3451 9.54312 7.63891 9.83694 8.00093 9.83694C8.36295 9.83694 8.65676 9.54312 8.65676 9.18111C8.65676 8.81909 8.36295 8.52528 8.00093 8.52528Z" fill="black"/>
<path fill-rule="evenodd" clip-rule="evenodd" d="M4.33002 9.57478C4.11281 9.57478 3.93652 9.39849 3.93652 9.18128C3.93652 8.96407 4.11281 8.78778 4.33002 8.78778H6.95334C7.17055 8.78778 7.34684 8.96407 7.34684 9.18128C7.34684 9.39849 7.17055 9.57478 6.95334 9.57478H4.33002Z" fill="black"/>
<path fill-rule="evenodd" clip-rule="evenodd" d="M7.60867 8.13154C7.60867 8.34875 7.43238 8.52503 7.21517 8.52503C6.99796 8.52503 6.82167 8.34875 6.82167 8.13154V3.40956C6.82167 3.23537 6.75242 3.06904 6.62965 2.94576C6.50636 2.82299 6.34003 2.75373 6.16585 2.75373H5.37885C5.16164 2.75373 4.98535 2.57744 4.98535 2.36023C4.98535 2.14302 5.16164 1.96674 5.37885 1.96674H6.16585C6.54834 1.96674 6.91558 2.11889 7.18633 2.38908C7.45654 2.65981 7.60867 3.02707 7.60867 3.40956V8.13154Z" fill="black"/>
<path fill-rule="evenodd" clip-rule="evenodd" d="M0 4.45905C0 4.24184 0.176287 4.06555 0.393498 4.06555C0.610709 4.06555 0.786996 4.24184 0.786996 4.45905V8.1317C0.786996 8.49371 1.08081 8.78753 1.44283 8.78753H2.22982C2.44703 8.78753 2.62332 8.96381 2.62332 9.18102C2.62332 9.39824 2.44703 9.57452 2.22982 9.57452H1.44283C0.645851 9.57452 0 8.92867 0 8.1317V4.45905Z" fill="black"/>
<path fill-rule="evenodd" clip-rule="evenodd" d="M9.05062 9.57343C8.83341 9.57343 8.65712 9.39714 8.65712 9.17993C8.65712 8.96272 8.83341 8.78643 9.05062 8.78643H10.3623C10.4347 8.78643 10.4934 8.72767 10.4934 8.65527V6.77068C10.4934 6.53772 10.4247 6.31002 10.2951 6.11589L9.1414 4.38502C9.11673 4.34881 9.07581 4.32679 9.03227 4.32679H7.6078V8.39294C7.6078 8.61015 7.43151 8.78643 7.2143 8.78643C6.99709 8.78643 6.8208 8.61015 6.8208 8.39294V3.93329C6.8208 3.71608 6.99709 3.53979 7.2143 3.53979H9.03227C9.33919 3.53979 9.62567 3.693 9.79618 3.94852L10.9499 5.67937C11.1656 6.00257 11.2805 6.38242 11.2805 6.77068V8.65527C11.2805 9.16261 10.8691 9.57343 10.3623 9.57343H9.05062Z" fill="black"/>
<path fill-rule="evenodd" clip-rule="evenodd" d="M10.6246 5.90161C10.8418 5.90161 11.0181 6.0779 11.0181 6.29511C11.0181 6.51232 10.8418 6.68861 10.6246 6.68861H7.2143C6.99709 6.68861 6.8208 6.51232 6.8208 6.29511C6.8208 6.0779 6.99709 5.90161 7.2143 5.90161H10.6246Z" fill="black"/>
<path fill-rule="evenodd" clip-rule="evenodd" d="M0.673287 3.19229C0.503831 3.05641 0.476549 2.80875 0.611891 2.63878C0.747769 2.46932 0.99541 2.44204 1.16542 2.5774L2.17278 3.38382L4.28771 0.799307C4.42517 0.631415 4.67333 0.606231 4.84122 0.744228C5.00911 0.88169 5.03429 1.12987 4.8963 1.29774L2.53531 4.18339C2.3989 4.35023 2.15335 4.37593 1.98495 4.24164L0.673287 3.19229Z" fill="black"/>
</g>
<defs>
<clipPath id="clip0_773_6029">
<rect width="11.2803" height="11.2803" fill="white"/>
</clipPath>
</defs>
</svg>
