<svg width="11" height="11" viewBox="0 0 11 11" fill="none" xmlns="http://www.w3.org/2000/svg">
<g clip-path="url(#clip0_1334_1415)">
<path fill-rule="evenodd" clip-rule="evenodd" d="M5.15625 6.87503C5.15625 6.6014 5.04763 6.33912 4.85409 6.14593C4.66091 5.9524 4.39862 5.84378 4.125 5.84378C3.44231 5.84378 2.40144 5.84378 1.71875 5.84378C1.44512 5.84378 1.18284 5.9524 0.989655 6.14593C0.796124 6.33912 0.6875 6.6014 0.6875 6.87503V9.28128C0.6875 9.5549 0.796124 9.81719 0.989655 10.0104C1.18284 10.2039 1.44512 10.3125 1.71875 10.3125H4.125C4.39862 10.3125 4.66091 10.2039 4.85409 10.0104C5.04763 9.81719 5.15625 9.5549 5.15625 9.28128V6.87503ZM10.3125 6.87503C10.3125 6.6014 10.2039 6.33912 10.0103 6.14593C9.81716 5.9524 9.55487 5.84378 9.28125 5.84378C8.59856 5.84378 7.55769 5.84378 6.875 5.84378C6.60137 5.84378 6.33909 5.9524 6.14591 6.14593C5.95237 6.33912 5.84375 6.6014 5.84375 6.87503V9.28128C5.84375 9.5549 5.95237 9.81719 6.14591 10.0104C6.33909 10.2039 6.60137 10.3125 6.875 10.3125H9.28125C9.55487 10.3125 9.81716 10.2039 10.0103 10.0104C10.2039 9.81719 10.3125 9.5549 10.3125 9.28128V6.87503ZM4.46875 6.87503V9.28128C4.46875 9.37237 4.43266 9.46003 4.36803 9.52431C4.30375 9.58893 4.21609 9.62503 4.125 9.62503H1.71875C1.62766 9.62503 1.54 9.58893 1.47572 9.52431C1.41109 9.46003 1.375 9.37237 1.375 9.28128V6.87503C1.375 6.78393 1.41109 6.69628 1.47572 6.632C1.54 6.56737 1.62766 6.53128 1.71875 6.53128H4.125C4.21609 6.53128 4.30375 6.56737 4.36803 6.632C4.43266 6.69628 4.46875 6.78393 4.46875 6.87503ZM9.625 6.87503V9.28128C9.625 9.37237 9.58891 9.46003 9.52428 9.52431C9.46 9.58893 9.37234 9.62503 9.28125 9.62503H6.875C6.78391 9.62503 6.69625 9.58893 6.63197 9.52431C6.56734 9.46003 6.53125 9.37237 6.53125 9.28128V6.87503C6.53125 6.78393 6.56734 6.69628 6.63197 6.632C6.69625 6.56737 6.78391 6.53128 6.875 6.53128H9.28125C9.37234 6.53128 9.46 6.56737 9.52428 6.632C9.58891 6.69628 9.625 6.78393 9.625 6.87503ZM8.80722 5.08512L10.2413 3.651C10.6439 3.24847 10.6439 2.59534 10.2413 2.19281L8.80722 0.758686C8.40469 0.356154 7.75156 0.356154 7.34903 0.758686L5.91491 2.19281C5.51237 2.59534 5.51237 3.24847 5.91491 3.651L7.34903 5.08512C7.75156 5.48765 8.40469 5.48765 8.80722 5.08512ZM5.15625 1.71878C5.15625 1.44515 5.04763 1.18287 4.85409 0.989685C4.66091 0.796153 4.39862 0.687529 4.125 0.687529C3.44231 0.687529 2.40144 0.687529 1.71875 0.687529C1.44512 0.687529 1.18284 0.796153 0.989655 0.989685C0.796124 1.18287 0.6875 1.44515 0.6875 1.71878V4.12503C0.6875 4.39865 0.796124 4.66094 0.989655 4.85412C1.18284 5.04765 1.44512 5.15628 1.71875 5.15628H4.125C4.39862 5.15628 4.66091 5.04765 4.85409 4.85412C5.04763 4.66094 5.15625 4.39865 5.15625 4.12503V1.71878ZM9.75528 3.16494L8.32116 4.59906C8.18709 4.73312 7.96916 4.73312 7.83509 4.59906L6.40097 3.16494C6.26691 3.03087 6.26691 2.81293 6.40097 2.67887L7.83509 1.24475C7.96916 1.11069 8.18709 1.11069 8.32116 1.24475L9.75528 2.67887C9.88934 2.81293 9.88934 3.03087 9.75528 3.16494ZM4.46875 1.71878V4.12503C4.46875 4.21612 4.43266 4.30378 4.36803 4.36806C4.30375 4.43269 4.21609 4.46878 4.125 4.46878H1.71875C1.62766 4.46878 1.54 4.43269 1.47572 4.36806C1.41109 4.30378 1.375 4.21612 1.375 4.12503V1.71878C1.375 1.62769 1.41109 1.54003 1.47572 1.47575C1.54 1.41112 1.62766 1.37503 1.71875 1.37503H4.125C4.21609 1.37503 4.30375 1.41112 4.36803 1.47575C4.43266 1.54003 4.46875 1.62769 4.46875 1.71878Z" fill="black"/>
</g>
<defs>
<clipPath id="clip0_1334_1415">
<rect width="11" height="11" fill="white"/>
</clipPath>
</defs>
</svg>
