<svg width="9" height="9" viewBox="0 0 9 9" fill="none" xmlns="http://www.w3.org/2000/svg">
<g clip-path="url(#clip0_773_6055)">
<path d="M4.49951 -0.000610352C2.01821 -0.000610352 -0.000488281 2.01809 -0.000488281 4.49939C-0.000488281 6.98069 2.01821 8.99939 4.49951 8.99939C6.98081 8.99939 8.99951 6.98069 8.99951 4.49939C8.99951 2.01809 6.98081 -0.000610352 4.49951 -0.000610352ZM4.49951 8.18121C2.46933 8.18121 0.817694 6.52954 0.817694 4.49939C0.817694 2.46923 2.46933 0.817571 4.49951 0.817571C6.52969 0.817571 8.18133 2.46923 8.18133 4.49939C8.18133 6.52954 6.52967 8.18121 4.49951 8.18121Z" fill="black"/>
<path d="M6.18941 2.90844L3.87521 5.22262L2.81457 4.16195C2.65483 4.00222 2.3958 4.00219 2.23603 4.16193C2.07627 4.32169 2.07627 4.5807 2.23603 4.74046L3.58592 6.09041C3.66264 6.16713 3.76669 6.21024 3.87518 6.21024H3.87521C3.9837 6.21024 4.08774 6.16713 4.16446 6.09044L6.76794 3.48701C6.92771 3.32724 6.92771 3.06824 6.76794 2.90847C6.60818 2.74871 6.34917 2.74868 6.18941 2.90844Z" fill="black"/>
</g>
<defs>
<clipPath id="clip0_773_6055">
<rect width="9" height="9" fill="white"/>
</clipPath>
</defs>
</svg>
