<svg width="14" height="14" viewBox="0 0 14 14" fill="none" xmlns="http://www.w3.org/2000/svg">
<g clip-path="url(#clip0_773_5991)">
<path d="M6.55557 0.423218C3.937 0.423218 1.80664 2.55357 1.80664 5.17212C1.80664 8.42182 6.05647 13.1926 6.23741 13.3941C6.40736 13.5834 6.70409 13.583 6.87373 13.3941C7.05467 13.1926 11.3045 8.42182 11.3045 5.17212C11.3045 2.55357 9.17412 0.423218 6.55557 0.423218ZM6.55557 12.4533C5.12529 10.7544 2.66184 7.40246 2.66184 5.17217C2.66184 3.02512 4.40854 1.27841 6.55557 1.27841C8.7026 1.27841 10.4493 3.02512 10.4493 5.17215C10.4493 7.40254 7.98622 10.7538 6.55557 12.4533Z" fill="black"/>
<path d="M6.55676 2.78296C5.23929 2.78296 4.16748 3.8548 4.16748 5.17227C4.16748 6.48974 5.23932 7.56157 6.55676 7.56157C7.87421 7.56157 8.94602 6.48974 8.94602 5.17227C8.94602 3.8548 7.87421 2.78296 6.55676 2.78296ZM6.55676 6.70638C5.71084 6.70638 5.02268 6.01819 5.02268 5.17227C5.02268 4.32634 5.71086 3.63815 6.55676 3.63815C7.40266 3.63815 8.09085 4.32634 8.09085 5.17227C8.09085 6.01819 7.40266 6.70638 6.55676 6.70638Z" fill="black"/>
</g>
<defs>
<clipPath id="clip0_773_5991">
<rect width="13.1127" height="13.1127" fill="white"/>
</clipPath>
</defs>
</svg>
