<svg width="44" height="12" viewBox="0 0 44 12" fill="none" xmlns="http://www.w3.org/2000/svg">
<g opacity="0.3">
<path d="M41.4043 2.07561V0.000366211H43.6871V2.07561H41.4043ZM43.6711 3.06534V11.4621H41.4362V3.06534H43.6711Z" fill="black"/>
<path d="M36.4669 11.4614H34.1682L30.0337 3.0647H32.524L35.3655 9.05097L38.2069 3.0647H40.6015L36.4669 11.4614Z" fill="black"/>
<path d="M25.9591 11.4614H23.6604L19.5259 3.0647H22.0162L24.8576 9.05097L27.6991 3.0647H30.0936L25.9591 11.4614Z" fill="black"/>
<path d="M15.0867 9.81559C16.3318 9.81559 17.2896 9.20898 17.6727 8.2831L19.5724 9.09723C19.0137 10.486 17.3056 11.6354 15.0867 11.6354C12.1973 11.6354 10.1221 9.86348 10.1221 7.26145C10.1221 4.78712 12.1654 2.90344 15.0707 2.90344C17.9761 2.90344 19.7161 4.78712 19.7161 7.18163V7.88402H12.2771C12.5485 9.09724 13.65 9.81559 15.0867 9.81559ZM14.9909 4.69134C13.7617 4.69134 12.7081 5.26602 12.3569 6.3675H17.5131C17.3854 5.58529 16.4436 4.69134 14.9909 4.69134Z" fill="black"/>
<path d="M0 11.4621V0.000366211H2.23487V4.11892C2.84148 3.43249 3.89507 2.9057 5.29984 2.9057C7.56664 2.9057 8.95546 4.45415 8.95546 6.7848V11.4621H6.72058V7.3116C6.72058 5.87489 6.00223 4.91709 4.56553 4.91709C3.06497 4.91709 2.23487 5.84296 2.23487 7.34352V11.4621H0Z" fill="black"/>
</g>
</svg>
