<svg width="99" height="79" viewBox="0 0 99 79" fill="none" xmlns="http://www.w3.org/2000/svg">
<g filter="url(#filter0_f_773_6016)">
<rect width="5.84899" height="2.18738" rx="1.09369" transform="matrix(0.999923 0.0124442 -0.0225277 0.999746 81.8096 14.7988)" fill="#B3B3B3" fill-opacity="0.8"/>
</g>
<g filter="url(#filter1_d_773_6016)">
<path fill-rule="evenodd" clip-rule="evenodd" d="M9.3308 68.5332C9.76955 68.5387 11.9164 66.0142 12.4499 65.2082C13.27 63.9691 13.7756 63.2364 13.8067 61.8577C13.859 59.5363 11.9653 57.6303 9.57715 57.6006C7.18895 57.5708 5.21052 59.4286 5.15822 61.75C5.12699 63.1359 5.56351 63.8755 6.32473 65.1319C6.85528 66.0077 8.89204 68.5278 9.3308 68.5332Z" fill="black"/>
</g>
<g filter="url(#filter2_d_773_6016)">
<path fill-rule="evenodd" clip-rule="evenodd" d="M85.2073 11.9146C85.646 11.9201 87.7929 9.3956 88.3264 8.58958C89.1465 7.35054 89.652 6.61779 89.6831 5.23909C89.7354 2.91767 87.8418 1.0117 85.4536 0.981977C83.0654 0.952256 81.087 2.81004 81.0347 5.13145C81.0035 6.51734 81.44 7.25689 82.2012 8.51335C82.7317 9.38907 84.7685 11.9092 85.2073 11.9146Z" fill="black"/>
</g>
<path fill-rule="evenodd" clip-rule="evenodd" d="M9.43848 63.909C10.6326 63.9239 11.6218 62.9949 11.6479 61.834C11.6741 60.6732 10.7273 59.7201 9.5332 59.7052C8.3391 59.6903 7.34989 60.6193 7.32373 61.7802C7.29757 62.9411 8.24438 63.8942 9.43848 63.909Z" fill="white"/>
<path fill-rule="evenodd" clip-rule="evenodd" d="M85.3145 7.29039C86.5086 7.30525 87.4978 6.37623 87.5239 5.21537C87.5501 4.05451 86.6033 3.1014 85.4092 3.08654C84.2151 3.07168 83.2259 4.00069 83.1997 5.16156C83.1735 6.32242 84.1204 7.27553 85.3145 7.29039Z" fill="#DEDEDE"/>
<defs>
<filter id="filter0_f_773_6016" x="70.5712" y="3.59885" width="28.2761" height="24.6595" filterUnits="userSpaceOnUse" color-interpolation-filters="sRGB">
<feFlood flood-opacity="0" result="BackgroundImageFix"/>
<feBlend mode="normal" in="SourceGraphic" in2="BackgroundImageFix" result="shape"/>
<feGaussianBlur stdDeviation="5.60674" result="effect1_foregroundBlur_773_6016"/>
</filter>
<filter id="filter1_d_773_6016" x="0.000231266" y="57.6002" width="18.9639" height="21.2461" filterUnits="userSpaceOnUse" color-interpolation-filters="sRGB">
<feFlood flood-opacity="0" result="BackgroundImageFix"/>
<feColorMatrix in="SourceAlpha" type="matrix" values="0 0 0 0 0 0 0 0 0 0 0 0 0 0 0 0 0 0 127 0" result="hardAlpha"/>
<feOffset dy="5.15651"/>
<feGaussianBlur stdDeviation="2.57825"/>
<feColorMatrix type="matrix" values="0 0 0 0 0 0 0 0 0 0 0 0 0 0 0 0 0 0 0.2 0"/>
<feBlend mode="normal" in2="BackgroundImageFix" result="effect1_dropShadow_773_6016"/>
<feBlend mode="normal" in="SourceGraphic" in2="effect1_dropShadow_773_6016" result="shape"/>
</filter>
<filter id="filter2_d_773_6016" x="75.8767" y="0.981628" width="18.9639" height="21.2461" filterUnits="userSpaceOnUse" color-interpolation-filters="sRGB">
<feFlood flood-opacity="0" result="BackgroundImageFix"/>
<feColorMatrix in="SourceAlpha" type="matrix" values="0 0 0 0 0 0 0 0 0 0 0 0 0 0 0 0 0 0 127 0" result="hardAlpha"/>
<feOffset dy="5.15651"/>
<feGaussianBlur stdDeviation="2.57825"/>
<feColorMatrix type="matrix" values="0 0 0 0 0 0 0 0 0 0 0 0 0 0 0 0 0 0 0.2 0"/>
<feBlend mode="normal" in2="BackgroundImageFix" result="effect1_dropShadow_773_6016"/>
<feBlend mode="normal" in="SourceGraphic" in2="effect1_dropShadow_773_6016" result="shape"/>
</filter>
</defs>
</svg>
