<svg width="12" height="12" viewBox="0 0 12 12" fill="none" xmlns="http://www.w3.org/2000/svg">
<g clip-path="url(#clip0_1334_1440)">
<path d="M10.2427 1.75737C9.10938 0.624117 7.60266 0 6 0C4.39734 0 2.89062 0.624117 1.75734 1.75737C0.624117 2.89062 0 4.39734 0 6C0 7.60266 0.624117 9.10938 1.75734 10.2426C2.89062 11.3759 4.39734 12 6 12C7.60266 12 9.10938 11.3759 10.2427 10.2426C11.3759 9.10938 12 7.60266 12 6C12 4.39734 11.3759 2.89062 10.2427 1.75737ZM6 11.2969C4.57397 11.2969 3.27792 10.7302 2.32472 9.81049C2.84091 8.23329 4.32391 7.14844 6 7.14844C7.67609 7.14844 9.15909 8.23329 9.6753 9.81052C8.72208 10.7302 7.42603 11.2969 6 11.2969ZM4.24219 4.6875C4.24219 3.71824 5.03074 2.92969 6 2.92969C6.96926 2.92969 7.75781 3.71824 7.75781 4.6875C7.75781 5.65676 6.96926 6.44531 6 6.44531C5.03074 6.44531 4.24219 5.65676 4.24219 4.6875ZM10.2033 9.21923C9.68602 8.00904 8.67037 7.08949 7.44288 6.67978C8.05929 6.23212 8.46094 5.50589 8.46094 4.6875C8.46094 3.33054 7.35696 2.22656 6 2.22656C4.64304 2.22656 3.53906 3.33054 3.53906 4.6875C3.53906 5.50589 3.94071 6.23212 4.55714 6.67978C3.32963 7.08949 2.31398 8.00904 1.79672 9.21923C1.11127 8.32638 0.703125 7.21003 0.703125 6C0.703125 3.07929 3.07929 0.703125 6 0.703125C8.92071 0.703125 11.2969 3.07929 11.2969 6C11.2969 7.21003 10.8887 8.32638 10.2033 9.21923Z" fill="black"/>
</g>
<defs>
<clipPath id="clip0_1334_1440">
<rect width="12" height="12" fill="white"/>
</clipPath>
</defs>
</svg>
