<svg width="113" height="16" viewBox="0 0 113 16" fill="none" xmlns="http://www.w3.org/2000/svg">
<path opacity="0.5" d="M111.715 14.7664V14.162H112.32V14.7664H111.715Z" fill="black"/>
<path opacity="0.5" d="M109.431 15.971L110.101 14.4138L110.207 14.2492L111.188 11.7694H111.67L109.93 15.971H109.431ZM110.154 14.7957L108.808 11.7694H109.325L110.483 14.4784L110.154 14.7957Z" fill="black"/>
<path opacity="0.5" d="M107.761 14.7671V10.5362H108.231V14.7671H107.761Z" fill="black"/>
<path opacity="0.5" d="M104.616 14.7695V10.421H105.086V14.7695H104.616ZM106.573 14.7695L104.981 13.2123L106.514 11.7726H107.161L105.439 13.3474L105.468 13.0712L107.219 14.7695H106.573Z" fill="black"/>
<path opacity="0.5" d="M102.671 14.8273C102.396 14.8273 102.152 14.7607 101.936 14.6275C101.725 14.4903 101.556 14.3043 101.431 14.0692C101.309 13.8302 101.249 13.5599 101.249 13.2583C101.249 12.9566 101.309 12.6902 101.431 12.4591C101.556 12.228 101.725 12.0458 101.936 11.9126C102.152 11.7794 102.394 11.7128 102.665 11.7128C102.888 11.7128 103.088 11.7559 103.264 11.8421C103.444 11.9283 103.591 12.0517 103.705 12.2123C103.822 12.369 103.897 12.5531 103.928 12.7647H103.493C103.454 12.5727 103.364 12.416 103.223 12.2946C103.082 12.1731 102.9 12.1124 102.676 12.1124C102.485 12.1124 102.318 12.1594 102.177 12.2534C102.036 12.3474 101.926 12.4806 101.848 12.653C101.77 12.8254 101.73 13.0271 101.73 13.2583C101.73 13.4894 101.77 13.6931 101.848 13.8694C101.926 14.0457 102.036 14.1828 102.177 14.2808C102.322 14.3787 102.49 14.4277 102.682 14.4277C102.898 14.4277 103.078 14.3689 103.223 14.2514C103.368 14.1299 103.46 13.9732 103.499 13.7813H103.934C103.899 13.9889 103.82 14.173 103.699 14.3336C103.581 14.4903 103.435 14.6118 103.258 14.698C103.082 14.7842 102.886 14.8273 102.671 14.8273Z" fill="black"/>
<path opacity="0.5" d="M100.084 14.7671V11.7702H100.554V14.7671H100.084ZM100.048 11.0886V10.5362H100.589V11.0886H100.048Z" fill="black"/>
<path opacity="0.5" d="M97.6162 14.8251C97.4203 14.8251 97.246 14.7859 97.0932 14.7076C96.9404 14.6253 96.8209 14.5117 96.7347 14.3667C96.6486 14.2179 96.6055 14.0475 96.6055 13.8555V11.7694H97.0756V13.7321C97.0756 13.9593 97.1304 14.1297 97.2401 14.2433C97.3537 14.357 97.5143 14.4138 97.722 14.4138C97.91 14.4138 98.0765 14.3707 98.2215 14.2845C98.3664 14.1983 98.48 14.0788 98.5623 13.926C98.6485 13.7693 98.6916 13.5911 98.6916 13.3913L98.768 14.1023C98.67 14.3256 98.5172 14.5019 98.3096 14.6312C98.102 14.7605 97.8708 14.8251 97.6162 14.8251ZM98.7209 14.7663V14.0612H98.6916V11.7694H99.1617V14.7663H98.7209Z" fill="black"/>
<path opacity="0.5" d="M95.2266 15.972V14.0681L95.3147 14.0857C95.2403 14.313 95.1032 14.4932 94.9034 14.6264C94.7075 14.7596 94.4724 14.8262 94.1982 14.8262C93.9279 14.8262 93.6909 14.7635 93.4872 14.6381C93.2874 14.5088 93.1307 14.3286 93.0171 14.0975C92.9074 13.8624 92.8525 13.5902 92.8525 13.2807C92.8525 12.9673 92.9093 12.6931 93.023 12.458C93.1366 12.223 93.2952 12.0408 93.4989 11.9115C93.7026 11.7822 93.9416 11.7176 94.2158 11.7176C94.4979 11.7176 94.7349 11.7861 94.9269 11.9233C95.1188 12.0604 95.2501 12.2543 95.3206 12.505L95.256 12.5168V11.7705H95.6967V15.972H95.2266ZM94.2864 14.4148C94.588 14.4148 94.8231 14.313 94.9915 14.1093C95.1639 13.9016 95.2501 13.6196 95.2501 13.2631C95.2501 12.9144 95.1639 12.6382 94.9915 12.4345C94.8192 12.2308 94.5841 12.1289 94.2864 12.1289C93.9886 12.1289 93.7555 12.2308 93.5871 12.4345C93.4186 12.6382 93.3344 12.9203 93.3344 13.2807C93.3344 13.6333 93.4186 13.9114 93.5871 14.1151C93.7555 14.3149 93.9886 14.4148 94.2864 14.4148Z" fill="black"/>
<path opacity="0.5" d="M90.5157 14.7671V14.0679L90.5745 14.0855C90.5001 14.3127 90.3629 14.4929 90.1631 14.6261C89.9673 14.7593 89.7322 14.8259 89.458 14.8259C89.1877 14.8259 88.9507 14.7613 88.7469 14.632C88.5472 14.5027 88.3905 14.3225 88.2768 14.0914C88.1671 13.8602 88.1123 13.5899 88.1123 13.2804C88.1123 12.967 88.1691 12.6928 88.2827 12.4578C88.3963 12.2227 88.555 12.0405 88.7587 11.9113C88.9624 11.782 89.2014 11.7173 89.4756 11.7173C89.7577 11.7173 89.9947 11.7859 90.1866 11.923C90.3786 12.0601 90.5098 12.254 90.5804 12.5048L90.4863 12.5165V10.5362H90.9564V14.7671H90.5157ZM89.5461 14.4146C89.8478 14.4146 90.0828 14.3127 90.2513 14.109C90.4237 13.9014 90.5098 13.6193 90.5098 13.2628C90.5098 12.9141 90.4237 12.638 90.2513 12.4342C90.0789 12.2305 89.8439 12.1287 89.5461 12.1287C89.2484 12.1287 89.0153 12.2305 88.8468 12.4342C88.6784 12.638 88.5942 12.92 88.5942 13.2804C88.5942 13.633 88.6784 13.9112 88.8468 14.1149C89.0153 14.3147 89.2484 14.4146 89.5461 14.4146Z" fill="black"/>
<path opacity="0.5" d="M86.2474 14.8273C85.9614 14.8273 85.7087 14.7607 85.4893 14.6275C85.27 14.4903 85.0976 14.3043 84.9722 14.0692C84.8469 13.8342 84.7842 13.5638 84.7842 13.2583C84.7842 12.9527 84.8449 12.6844 84.9663 12.4532C85.0917 12.2182 85.266 12.036 85.4893 11.9067C85.7126 11.7774 85.9692 11.7128 86.2591 11.7128C86.5373 11.7128 86.7782 11.7735 86.9819 11.895C87.1896 12.0164 87.3482 12.1868 87.4579 12.4062C87.5715 12.6256 87.6283 12.8841 87.6283 13.1819C87.6283 13.2211 87.6264 13.2583 87.6224 13.2935C87.6224 13.3288 87.6185 13.368 87.6107 13.4111H85.1368V13.0173H87.3228L87.17 13.2348C87.17 12.8744 87.0897 12.5982 86.929 12.4062C86.7723 12.2103 86.549 12.1124 86.2591 12.1124C85.9614 12.1124 85.7205 12.2162 85.5363 12.4238C85.3561 12.6275 85.266 12.9037 85.266 13.2524C85.266 13.6089 85.3561 13.8949 85.5363 14.1103C85.7205 14.3219 85.9653 14.4277 86.2709 14.4277C86.4628 14.4277 86.6313 14.3865 86.7763 14.3043C86.9212 14.2181 87.027 14.0966 87.0936 13.9399H87.5402C87.4422 14.2142 87.2777 14.4316 87.0466 14.5922C86.8193 14.7489 86.553 14.8273 86.2474 14.8273Z" fill="black"/>
<path opacity="0.5" d="M82.9194 14.7685V11.7716H83.3602V12.5355H83.3895V14.7685H82.9194ZM83.3895 13.2054L83.3131 12.4943C83.3837 12.2397 83.509 12.0458 83.6892 11.9126C83.8694 11.7794 84.0771 11.7128 84.3121 11.7128C84.4101 11.7128 84.4767 11.7206 84.5119 11.7363V12.1888C84.4923 12.1809 84.4649 12.177 84.4296 12.177C84.3944 12.1731 84.3513 12.1712 84.3004 12.1712C84.0026 12.1712 83.7754 12.2613 83.6187 12.4415C83.4659 12.6178 83.3895 12.8724 83.3895 13.2054Z" fill="black"/>
<path opacity="0.5" d="M80.8299 14.8273C80.5439 14.8273 80.2912 14.7607 80.0719 14.6275C79.8525 14.4903 79.6801 14.3043 79.5547 14.0692C79.4294 13.8342 79.3667 13.5638 79.3667 13.2583C79.3667 12.9527 79.4274 12.6844 79.5489 12.4532C79.6742 12.2182 79.8486 12.036 80.0719 11.9067C80.2952 11.7774 80.5518 11.7128 80.8417 11.7128C81.1198 11.7128 81.3607 11.7735 81.5644 11.895C81.7721 12.0164 81.9307 12.1868 82.0404 12.4062C82.154 12.6256 82.2108 12.8841 82.2108 13.1819C82.2108 13.2211 82.2089 13.2583 82.205 13.2935C82.205 13.3288 82.201 13.368 82.1932 13.4111H79.7193V13.0173H81.9053L81.7525 13.2348C81.7525 12.8744 81.6722 12.5982 81.5116 12.4062C81.3549 12.2103 81.1316 12.1124 80.8417 12.1124C80.5439 12.1124 80.303 12.2162 80.1189 12.4238C79.9387 12.6275 79.8486 12.9037 79.8486 13.2524C79.8486 13.6089 79.9387 13.8949 80.1189 14.1103C80.303 14.3219 80.5478 14.4277 80.8534 14.4277C81.0454 14.4277 81.2138 14.3865 81.3588 14.3043C81.5037 14.2181 81.6095 14.0966 81.6761 13.9399H82.1227C82.0248 14.2142 81.8602 14.4316 81.6291 14.5922C81.4019 14.7489 81.1355 14.8273 80.8299 14.8273Z" fill="black"/>
<path opacity="0.5" d="M77.4767 14.7663L76.2368 11.7694H76.7422L77.7764 14.449H77.5884L78.6167 11.7694H79.0986L77.8587 14.7663H77.4767Z" fill="black"/>
<path opacity="0.5" d="M75.2301 14.7671V11.7702H75.7002V14.7671H75.2301ZM75.1948 11.0886V10.5362H75.7354V11.0886H75.1948Z" fill="black"/>
<path opacity="0.5" d="M73.8174 14.7671V10.5362H74.2875V14.7671H73.8174Z" fill="black"/>
<path opacity="0.5" d="M71.7288 14.8273C71.4428 14.8273 71.1902 14.7607 70.9708 14.6275C70.7514 14.4903 70.579 14.3043 70.4537 14.0692C70.3283 13.8342 70.2656 13.5638 70.2656 13.2583C70.2656 12.9527 70.3263 12.6844 70.4478 12.4532C70.5732 12.2182 70.7475 12.036 70.9708 11.9067C71.1941 11.7774 71.4507 11.7128 71.7406 11.7128C72.0187 11.7128 72.2597 11.7735 72.4634 11.895C72.671 12.0164 72.8297 12.1868 72.9394 12.4062C73.053 12.6256 73.1098 12.8841 73.1098 13.1819C73.1098 13.2211 73.1078 13.2583 73.1039 13.2935C73.1039 13.3288 73.1 13.368 73.0921 13.4111H70.6182V13.0173H72.8042L72.6514 13.2348C72.6514 12.8744 72.5711 12.5982 72.4105 12.4062C72.2538 12.2103 72.0305 12.1124 71.7406 12.1124C71.4428 12.1124 71.2019 12.2162 71.0178 12.4238C70.8376 12.6275 70.7475 12.9037 70.7475 13.2524C70.7475 13.6089 70.8376 13.8949 71.0178 14.1103C71.2019 14.3219 71.4468 14.4277 71.7523 14.4277C71.9443 14.4277 72.1127 14.3865 72.2577 14.3043C72.4026 14.2181 72.5084 14.0966 72.575 13.9399H73.0216C72.9237 14.2142 72.7591 14.4316 72.528 14.5922C72.3008 14.7489 72.0344 14.8273 71.7288 14.8273Z" fill="black"/>
<path opacity="0.5" d="M69.1163 14.7671V14.0679L69.1751 14.0855C69.1006 14.3127 68.9635 14.4929 68.7637 14.6261C68.5679 14.7593 68.3328 14.8259 68.0586 14.8259C67.7883 14.8259 67.5512 14.7613 67.3475 14.632C67.1477 14.5027 66.991 14.3225 66.8774 14.0914C66.7677 13.8602 66.7129 13.5899 66.7129 13.2804C66.7129 12.967 66.7697 12.6928 66.8833 12.4578C66.9969 12.2227 67.1556 12.0405 67.3593 11.9113C67.563 11.782 67.802 11.7173 68.0762 11.7173C68.3583 11.7173 68.5953 11.7859 68.7872 11.923C68.9792 12.0601 69.1104 12.254 69.1809 12.5048L69.0869 12.5165V10.5362H69.557V14.7671H69.1163ZM68.1467 14.4146C68.4484 14.4146 68.6834 14.3127 68.8519 14.109C69.0242 13.9014 69.1104 13.6193 69.1104 13.2628C69.1104 12.9141 69.0242 12.638 68.8519 12.4342C68.6795 12.2305 68.4444 12.1287 68.1467 12.1287C67.849 12.1287 67.6159 12.2305 67.4474 12.4342C67.279 12.638 67.1947 12.92 67.1947 13.2804C67.1947 13.633 67.279 13.9112 67.4474 14.1149C67.6159 14.3147 67.849 14.4146 68.1467 14.4146Z" fill="black"/>
<path opacity="0.5" d="M97.1797 8.2687V8.02777C97.2933 7.98467 97.3756 7.91612 97.4265 7.82209C97.4774 7.73199 97.5029 7.59292 97.5029 7.40488L97.6851 7.42251H97.1797V6.82312H97.7732V7.2991C97.7732 7.54983 97.7262 7.75746 97.6322 7.92199C97.5381 8.08653 97.3873 8.2021 97.1797 8.2687Z" fill="black"/>
<path opacity="0.5" d="M95.8079 7.42277V4.00275C95.8079 3.72852 95.8863 3.51502 96.043 3.36223C96.2036 3.20945 96.4465 3.13306 96.7716 3.13306C96.85 3.13306 96.9107 3.13697 96.9538 3.14481C97.0008 3.15264 97.04 3.16244 97.0713 3.17419V3.5444C97.0439 3.53656 97.0047 3.52873 96.9538 3.52089C96.9068 3.51306 96.8559 3.50914 96.801 3.50914C96.6208 3.50914 96.4876 3.55419 96.4014 3.6443C96.3192 3.7344 96.278 3.86172 96.278 4.02626V7.42277H95.8079ZM95.1909 4.82544V4.42585H97.0067V4.82544H95.1909Z" fill="black"/>
<path opacity="0.5" d="M93.6566 7.42277V4.00275C93.6566 3.72852 93.7349 3.51502 93.8916 3.36223C94.0522 3.20945 94.2951 3.13306 94.6203 3.13306C94.6986 3.13306 94.7594 3.13697 94.8024 3.14481C94.8495 3.15264 94.8886 3.16244 94.92 3.17419V3.5444C94.8925 3.53656 94.8534 3.52873 94.8024 3.52089C94.7554 3.51306 94.7045 3.50914 94.6497 3.50914C94.4695 3.50914 94.3363 3.55419 94.2501 3.6443C94.1678 3.7344 94.1267 3.86172 94.1267 4.02626V7.42277H93.6566ZM93.0396 4.82544V4.42585H94.8553V4.82544H93.0396Z" fill="black"/>
<path opacity="0.5" d="M90.9419 7.47955C90.746 7.47955 90.5717 7.44037 90.4189 7.36202C90.2661 7.27975 90.1466 7.16614 90.0604 7.02119C89.9742 6.87233 89.9312 6.70191 89.9312 6.50995V4.42386H90.4013V6.38655C90.4013 6.61377 90.4561 6.78418 90.5658 6.89779C90.6794 7.0114 90.84 7.0682 91.0477 7.0682C91.2357 7.0682 91.4022 7.02511 91.5471 6.93893C91.6921 6.85274 91.8057 6.73325 91.888 6.58047C91.9742 6.42377 92.0172 6.24552 92.0172 6.04572L92.0936 6.75676C91.9957 6.98006 91.8429 7.15635 91.6353 7.28563C91.4277 7.41491 91.1965 7.47955 90.9419 7.47955ZM92.0466 7.42078V6.71563H92.0172V4.42386H92.4874V7.42078H92.0466Z" fill="black"/>
<path opacity="0.5" d="M88.9777 7.47781C88.6447 7.47781 88.4018 7.40338 88.249 7.25451C88.1001 7.10173 88.0257 6.88235 88.0257 6.59636V3.72872L88.4958 3.55243V6.59049C88.4958 6.75894 88.5389 6.88235 88.6251 6.9607C88.7113 7.03905 88.8523 7.07822 89.0482 7.07822C89.1265 7.07822 89.1931 7.07431 89.248 7.06647C89.3067 7.05472 89.3538 7.04101 89.389 7.02534V7.42493C89.3498 7.4406 89.293 7.45235 89.2186 7.46019C89.1481 7.47194 89.0678 7.47781 88.9777 7.47781ZM87.4087 4.82759V4.428H89.389V4.82759H87.4087Z" fill="black"/>
<path opacity="0.5" d="M86.0188 7.48167C85.6505 7.48167 85.3567 7.39744 85.1373 7.22899C84.9179 7.05662 84.7926 6.81373 84.7612 6.50032H85.2137C85.2411 6.69228 85.3254 6.83919 85.4664 6.94105C85.6074 7.0429 85.7955 7.09383 86.0305 7.09383C86.2381 7.09383 86.4007 7.05466 86.5183 6.97631C86.6358 6.89796 86.6945 6.7863 86.6945 6.64136C86.6945 6.5395 86.6612 6.45135 86.5946 6.37692C86.528 6.29857 86.3948 6.23393 86.1951 6.183L85.7132 6.0596C85.439 5.98908 85.2333 5.88135 85.0962 5.7364C84.9591 5.58753 84.8905 5.41125 84.8905 5.20753C84.8905 4.94897 84.9865 4.74526 85.1784 4.59639C85.3704 4.44361 85.6309 4.36722 85.96 4.36722C86.2852 4.36722 86.5496 4.44557 86.7533 4.60227C86.957 4.75897 87.0726 4.9764 87.1 5.25454H86.6475C86.6201 5.09392 86.5457 4.97052 86.4242 4.88433C86.3028 4.79815 86.1422 4.75506 85.9424 4.75506C85.7504 4.75506 85.6015 4.79227 85.4958 4.86671C85.39 4.93722 85.3371 5.03908 85.3371 5.17227C85.3371 5.27413 85.3743 5.36228 85.4488 5.43671C85.5271 5.51114 85.6564 5.57382 85.8366 5.62475L86.3067 5.75403C86.5848 5.82846 86.7944 5.94207 86.9355 6.09486C87.0765 6.24764 87.147 6.43177 87.147 6.64723C87.147 6.90971 87.0471 7.11538 86.8473 7.26425C86.6475 7.4092 86.3713 7.48167 86.0188 7.48167Z" fill="black"/>
<path opacity="0.5" d="M81.0086 8.62543L81.6785 7.0682L81.7843 6.90367L82.7657 4.42386H83.2475L81.5081 8.62543H81.0086ZM81.7314 7.45017L80.3857 4.42386H80.9029L82.0605 7.13284L81.7314 7.45017Z" fill="black"/>
<path opacity="0.5" d="M78.4577 7.42078L77.2178 4.42386H77.7231L78.7574 7.10346H78.5693L79.5977 4.42386H80.0795L78.8396 7.42078H78.4577Z" fill="black"/>
<path opacity="0.5" d="M76.4019 7.42291C76.3862 7.35631 76.3745 7.27992 76.3666 7.19373C76.3627 7.10754 76.3607 6.99785 76.3607 6.86466H76.3314V5.43083C76.3314 5.20362 76.2785 5.03712 76.1727 4.93135C76.0708 4.82165 75.9043 4.76681 75.6732 4.76681C75.446 4.76681 75.2638 4.81382 75.1267 4.90784C74.9935 4.99794 74.9191 5.12722 74.9034 5.29568H74.4509C74.4705 5.00578 74.592 4.77856 74.8153 4.61402C75.0386 4.44949 75.3304 4.36722 75.6908 4.36722C76.063 4.36722 76.3392 4.45536 76.5194 4.63165C76.6996 4.80794 76.7897 5.07238 76.7897 5.42496V6.86466C76.7897 6.95084 76.7956 7.04095 76.8073 7.13497C76.8191 7.22507 76.8348 7.32105 76.8544 7.42291H76.4019ZM75.3735 7.48167C75.064 7.48167 74.8172 7.40724 74.6331 7.25837C74.4529 7.10559 74.3628 6.89795 74.3628 6.63548C74.3628 6.373 74.4529 6.16929 74.6331 6.02434C74.8133 5.87939 75.0758 5.77754 75.4205 5.71877L76.4665 5.54248V5.93032L75.491 6.0831C75.2717 6.11836 75.1052 6.17713 74.9916 6.25939C74.878 6.34166 74.8211 6.46115 74.8211 6.61785C74.8211 6.77063 74.8721 6.8862 74.9739 6.96455C75.0797 7.0429 75.2344 7.08208 75.4382 7.08208C75.7006 7.08208 75.9141 7.02332 76.0787 6.90579C76.2471 6.78435 76.3314 6.62764 76.3314 6.43568L76.4078 6.8529C76.3451 7.0527 76.2217 7.20744 76.0375 7.31713C75.8573 7.42682 75.636 7.48167 75.3735 7.48167Z" fill="black"/>
<path opacity="0.5" d="M72.492 7.48167C72.206 7.48167 71.9534 7.41507 71.734 7.28187C71.5146 7.14476 71.3422 6.95868 71.2169 6.72362C71.0915 6.48857 71.0288 6.21826 71.0288 5.91269C71.0288 5.60712 71.0895 5.33877 71.211 5.10763C71.3363 4.87258 71.5107 4.69042 71.734 4.56114C71.9573 4.43186 72.2139 4.36722 72.5038 4.36722C72.7819 4.36722 73.0228 4.42794 73.2266 4.54938C73.4342 4.67083 73.5928 4.84124 73.7025 5.06062C73.8161 5.28001 73.8729 5.53857 73.8729 5.8363C73.8729 5.87547 73.871 5.91269 73.8671 5.94795C73.8671 5.98321 73.8632 6.02238 73.8553 6.06548H71.3814V5.67176H73.5674L73.4146 5.88919C73.4146 5.52877 73.3343 5.25258 73.1737 5.06062C73.017 4.86475 72.7937 4.76681 72.5038 4.76681C72.206 4.76681 71.9651 4.87062 71.781 5.07825C71.6008 5.28197 71.5107 5.55815 71.5107 5.90681C71.5107 6.26331 71.6008 6.54929 71.781 6.76476C71.9651 6.97631 72.2099 7.08208 72.5155 7.08208C72.7075 7.08208 72.8759 7.04095 73.0209 6.95868C73.1658 6.87249 73.2716 6.75105 73.3382 6.59434H73.7848C73.6869 6.86857 73.5223 7.086 73.2912 7.24662C73.064 7.40332 72.7976 7.48167 72.492 7.48167Z" fill="black"/>
<path opacity="0.5" d="M66.9712 7.4216V3.19064H67.453V7.4216H66.9712ZM69.8036 7.4216V3.19064H70.2854V7.4216H69.8036ZM67.218 5.00643H70.0151V5.42952H67.218V5.00643Z" fill="black"/>
<path d="M53.3457 2.67394V0.000213623H56.2868V2.67394H53.3457ZM56.2662 3.9491V14.7674H53.3868V3.9491H56.2662Z" fill="black"/>
<path d="M46.9834 14.7677H44.0217L38.6948 3.94937H41.9033L45.5642 11.662L49.2252 3.94937H52.3103L46.9834 14.7677Z" fill="black"/>
<path d="M33.4468 14.7677H30.4851L25.1582 3.94937H28.3667L32.0276 11.662L35.6886 3.94937H38.7736L33.4468 14.7677Z" fill="black"/>
<path d="M19.4374 12.6477C21.0416 12.6477 22.2757 11.8661 22.7693 10.6732L25.2168 11.7221C24.4969 13.5115 22.2962 14.9923 19.4374 14.9923C15.7147 14.9923 13.041 12.7094 13.041 9.35692C13.041 6.16902 15.6736 3.7421 19.4168 3.7421C23.16 3.7421 25.4019 6.16902 25.4019 9.25409V10.159H15.8176C16.1672 11.7221 17.5864 12.6477 19.4374 12.6477ZM19.314 6.04561C17.7303 6.04561 16.3729 6.78603 15.9204 8.20516H22.5636C22.3991 7.19737 21.1856 6.04561 19.314 6.04561Z" fill="black"/>
<path d="M0 14.7676V0.000427246H2.8794V5.30675C3.66095 4.42236 5.01838 3.74365 6.82829 3.74365C9.74882 3.74365 11.5382 5.73866 11.5382 8.74146V14.7676H8.65876V9.42018C8.65876 7.56913 7.73324 6.3351 5.8822 6.3351C3.94889 6.3351 2.8794 7.528 2.8794 9.46131V14.7676H0Z" fill="black"/>
</svg>
