<svg width="19" height="22" viewBox="0 57.6 19 21.5" fill="none" xmlns="http://www.w3.org/2000/svg">
<g filter="url(#filter1_d_drop)">
<path fill-rule="evenodd" clip-rule="evenodd" d="M9.3308 68.5332C9.76955 68.5387 11.9164 66.0142 12.4499 65.2082C13.27 63.9691 13.7756 63.2364 13.8067 61.8577C13.859 59.5363 11.9653 57.6303 9.57715 57.6006C7.18895 57.5708 5.21052 59.4286 5.15822 61.75C5.12699 63.1359 5.56351 63.8755 6.32473 65.1319C6.85528 66.0077 8.89204 68.5278 9.3308 68.5332Z" fill="black"/>
</g>
<path fill-rule="evenodd" clip-rule="evenodd" d="M9.43848 63.909C10.6326 63.9239 11.6218 62.9949 11.6479 61.834C11.6741 60.6732 10.7273 59.7201 9.5332 59.7052C8.3391 59.6903 7.34989 60.6193 7.32373 61.7802C7.29757 62.9411 8.24438 63.8942 9.43848 63.909Z" fill="#DEDEDE"/>
<defs>
<filter id="filter1_d_drop" x="0.000231266" y="57.6002" width="18.9639" height="21.2461" filterUnits="userSpaceOnUse" color-interpolation-filters="sRGB">
<feFlood flood-opacity="0" result="BackgroundImageFix"/>
<feColorMatrix in="SourceAlpha" type="matrix" values="0 0 0 0 0 0 0 0 0 0 0 0 0 0 0 0 0 0 127 0" result="hardAlpha"/>
<feOffset dy="5.15651"/>
<feGaussianBlur stdDeviation="2.57825"/>
<feColorMatrix type="matrix" values="0 0 0 0 0 0 0 0 0 0 0 0 0 0 0 0 0 0 0.2 0"/>
<feBlend mode="normal" in2="BackgroundImageFix" result="effect1_dropShadow_drop"/>
<feBlend mode="normal" in="SourceGraphic" in2="effect1_dropShadow_drop" result="shape"/>
</filter>
</defs>
</svg>
